<?xml version="1.0" standalone="no"?>
<!DOCTYPE svg PUBLIC "-//W3C//DTD SVG 20010904//EN"
 "http://www.w3.org/TR/2001/REC-SVG-20010904/DTD/svg10.dtd">
<svg version="1.0" xmlns="http://www.w3.org/2000/svg"
 width="512.000000pt" height="512.000000pt" viewBox="0 0 512.000000 512.000000"
 preserveAspectRatio="xMidYMid meet">
<metadata>
Created by potrace 1.11, written by Peter Selinger 2001-2013
</metadata>
<g transform="translate(0.000000,512.000000) scale(0.100000,-0.100000)"
fill="#000000" stroke="none">
<path d="M0 2560 l0 -2560 2560 0 2560 0 0 2560 0 2560 -2560 0 -2560 0 0
-2560z m2720 1976 c358 -77 636 -275 760 -541 53 -113 71 -191 77 -337 9 -207
-26 -399 -93 -513 -83 -142 -240 -228 -500 -272 -160 -27 -788 -27 -948 0
-344 58 -497 178 -567 444 -30 114 -38 368 -15 483 35 169 109 305 235 431
176 175 397 277 696 323 59 9 281 -3 355 -18z m-900 -1765 c210 -57 549 -81
880 -62 305 17 468 49 616 121 43 21 80 38 80 37 1 -1 -6 -67 -16 -147 -81
-649 -264 -1318 -475 -1740 -125 -250 -227 -375 -328 -405 -152 -45 -265 13
-388 199 -246 372 -482 1135 -579 1866 -11 85 -22 172 -25 192 l-5 37 83 -39
c45 -21 116 -48 157 -59z m-266 -646 c15 -71 47 -208 72 -303 24 -95 44 -186
44 -201 0 -80 -74 -285 -119 -330 -29 -29 -50 -16 -88 56 -72 137 -102 292
-110 565 -8 291 22 525 88 673 l22 50 32 -190 c18 -104 44 -248 59 -320z
m2006 399 c53 -167 65 -261 64 -539 0 -263 -11 -368 -56 -515 -25 -81 -75
-178 -99 -191 -37 -19 -91 68 -134 217 -33 114 -33 139 3 269 58 210 123 518
158 752 9 62 20 110 25 107 4 -2 22 -47 39 -100z"/>
<path d="M2235 4204 c-309 -56 -534 -198 -591 -373 -15 -48 -16 -65 -6 -132
30 -208 157 -312 447 -365 122 -22 532 -31 692 -14 285 29 450 104 521 237 35
67 57 176 46 238 -31 190 -270 351 -608 410 -113 19 -390 19 -501 -1z m-99
-411 c148 -50 232 -163 161 -217 -24 -17 -42 -21 -111 -21 -75 0 -89 4 -160
38 -130 65 -176 159 -96 199 45 23 141 23 206 1z m914 -1 c86 -43 26 -146
-125 -214 -71 -31 -201 -33 -242 -2 -22 17 -28 29 -26 55 2 48 90 129 170 157
75 26 176 28 223 4z"/>
</g>
</svg>
